<svg width="9" height="11" viewBox="0 0 9 11" fill="none" xmlns="http://www.w3.org/2000/svg">
<path d="M7.98628 5.74801C7.20128 3.70801 4.40628 3.59801 5.08128 0.633007C5.13128 0.413007 4.89628 0.243007 4.70628 0.358007C2.89128 1.42801 1.58628 3.57301 2.68128 6.38301C2.77128 6.61301 2.50128 6.82801 2.30628 6.67801C1.40128 5.99301 1.30628 5.00801 1.38628 4.30301C1.41628 4.04301 1.07628 3.91801 0.931277 4.13301C0.591277 4.65301 0.246277 5.49301 0.246277 6.75801C0.436277 9.55801 2.80128 10.418 3.65128 10.528C4.86628 10.683 6.18128 10.458 7.12628 9.59301C8.16628 8.62801 8.54628 7.08801 7.98628 5.74801ZM3.34628 8.26301C4.06628 8.08801 4.43628 7.56801 4.53628 7.10801C4.70128 6.39301 4.05628 5.69301 4.49128 4.56301C4.65628 5.49801 6.12628 6.08301 6.12628 7.10301C6.16628 8.36801 4.79628 9.45301 3.34628 8.26301Z" fill="#FC6E6A"/>
</svg>
